<svg width="1820" height="280" viewBox="0 0 1820 280" fill="none" xmlns="http://www.w3.org/2000/svg">
<rect width="1820" height="280" fill="#82A1FF"/>
<rect x="560" width="70" height="70" fill="#FFD83C"/>
<rect x="700" width="70" height="70" fill="#FFD83C"/>
<rect x="840" width="70" height="70" fill="#FFD83C"/>
<rect x="980" width="70" height="70" fill="#FFD83C"/>
<rect x="630" y="70" width="70" height="70" fill="#FFD83C"/>
<rect x="770" y="70" width="70" height="70" fill="#FFD83C"/>
<rect x="910" y="70" width="70" height="70" fill="#FFD83C"/>
<rect x="1050" y="70" width="70" height="70" fill="#FFD83C"/>
<rect x="560" y="140" width="70" height="70" fill="#FFD83C"/>
<rect x="700" y="140" width="70" height="70" fill="#FFD83C"/>
<rect x="840" y="140" width="70" height="70" fill="#FFD83C"/>
<rect x="980" y="140" width="70" height="70" fill="#FFD83C"/>
<rect x="630" y="210" width="70" height="70" fill="#FFD83C"/>
<rect x="770" y="210" width="70" height="70" fill="#FFD83C"/>
<rect x="910" y="210" width="70" height="70" fill="#FFD83C"/>
<rect x="1050" y="210" width="70" height="70" fill="#FFD83C"/>
<rect x="1120" width="70" height="70" fill="#FFD83C"/>
<rect x="1260" width="70" height="70" fill="#FFD83C"/>
<rect x="1400" width="70" height="70" fill="#FFD83C"/>
<rect x="1540" width="70" height="70" fill="#FFD83C"/>
<rect x="1190" y="70" width="70" height="70" fill="#FFD83C"/>
<rect x="1330" y="70" width="70" height="70" fill="#FFD83C"/>
<rect x="1470" y="70" width="70" height="70" fill="#FFD83C"/>
<rect x="1610" y="70" width="70" height="70" fill="#FFD83C"/>
<rect x="1120" y="140" width="70" height="70" fill="#FFD83C"/>
<rect x="1260" y="140" width="70" height="70" fill="#FFD83C"/>
<rect x="1400" y="140" width="70" height="70" fill="#FFD83C"/>
<rect x="1540" y="140" width="70" height="70" fill="#FFD83C"/>
<rect width="70" height="70" fill="#FFD83C"/>
<rect x="140" width="70" height="70" fill="#FFD83C"/>
<rect x="280" width="70" height="70" fill="#FFD83C"/>
<rect x="420" width="70" height="70" fill="#FFD83C"/>
<rect x="70" y="70" width="70" height="70" fill="#FFD83C"/>
<rect x="210" y="70" width="70" height="70" fill="#FFD83C"/>
<rect x="350" y="70" width="70" height="70" fill="#FFD83C"/>
<rect x="490" y="70" width="70" height="70" fill="#FFD83C"/>
<rect y="140" width="70" height="70" fill="#FFD83C"/>
<rect x="140" y="140" width="70" height="70" fill="#FFD83C"/>
<rect x="280" y="140" width="70" height="70" fill="#FFD83C"/>
<rect x="420" y="140" width="70" height="70" fill="#FFD83C"/>
<rect x="70" y="210" width="70" height="70" fill="#FFD83C"/>
<rect x="210" y="210" width="70" height="70" fill="#FFD83C"/>
<rect x="350" y="210" width="70" height="70" fill="#FFD83C"/>
<rect x="490" y="210" width="70" height="70" fill="#FFD83C"/>
<rect x="1190" y="210" width="70" height="70" fill="#FFD83C"/>
<rect x="1330" y="210" width="70" height="70" fill="#FFD83C"/>
<rect x="1470" y="210" width="70" height="70" fill="#FFD83C"/>
<rect x="1610" y="210" width="70" height="70" fill="#FFD83C"/>
<rect x="1680" width="70" height="70" fill="#FFD83C"/>
<rect x="1750" y="70" width="70" height="70" fill="#FFD83C"/>
<rect x="1680" y="140" width="70" height="70" fill="#FFD83C"/>
<rect x="1750" y="210" width="70" height="70" fill="#FFD83C"/>
</svg>
