<svg width="500" height="572" viewBox="0 0 500 572" fill="none" xmlns="http://www.w3.org/2000/svg">
<path d="M499.834 401.652V26.7768C499.834 11.938 487.896 0 473.057 0H107.107C47.9751 0 0 47.9751 0 107.107V464.131C0 523.263 47.9751 571.239 107.107 571.239H473.057C487.896 571.239 499.834 559.301 499.834 544.462V526.611C499.834 518.243 495.929 510.656 489.904 505.747C485.218 488.565 485.218 439.586 489.904 422.404C495.929 417.607 499.834 410.02 499.834 401.652ZM142.81 149.504C142.81 145.822 145.822 142.81 149.504 142.81H386.032C389.714 142.81 392.727 145.822 392.727 149.504V171.818C392.727 175.5 389.714 178.512 386.032 178.512H149.504C145.822 178.512 142.81 175.5 142.81 171.818V149.504ZM142.81 220.909C142.81 217.227 145.822 214.214 149.504 214.214H386.032C389.714 214.214 392.727 217.227 392.727 220.909V243.223C392.727 246.904 389.714 249.917 386.032 249.917H149.504C145.822 249.917 142.81 246.904 142.81 243.223V220.909ZM425.528 499.834H107.107C87.3593 499.834 71.4048 483.879 71.4048 464.131C71.4048 444.495 87.4709 428.429 107.107 428.429H425.528C423.408 447.507 423.408 480.755 425.528 499.834Z" fill="white"/>
</svg>
