<svg width="539" height="897" viewBox="0 0 539 897" fill="none" xmlns="http://www.w3.org/2000/svg">
<path d="M538.5 35.8269L63.6951 34.2465L14.7048 540.511L479.512 645.413L538.5 35.8269Z" fill="#F51010"/>
<path d="M537.174 49.5254L62.535 46.2326L13.5939 551.989L480.174 638.564L537.174 49.5254Z" fill="white"/>
<path d="M526.368 161.208L62.0383 51.3693L12.5229 563.061L476.032 681.371L526.368 161.208Z" fill="#F51010"/>
<line y1="-1.5" x2="473.959" y2="-1.5" transform="matrix(0.999687 0.0250114 -0.0318457 0.999493 62.0382 51.3694)" stroke="black" stroke-width="3"/>
<line y1="-1.5" x2="472.85" y2="-1.5" transform="matrix(-0.997125 -0.0757678 0.0963182 -0.995351 533.53 87.1962)" stroke="black" stroke-width="3"/>
<line y1="-1.5" x2="474.308" y2="-1.5" transform="matrix(-0.984279 -0.176619 0.222773 -0.97487 528.89 135.141)" stroke="black" stroke-width="3"/>
<ellipse cx="48.4183" cy="87.804" rx="48.4183" ry="87.804" transform="matrix(0.994883 0.101029 -0.128254 0.991741 208.708 205.775)" fill="black"/>
<path fill-rule="evenodd" clip-rule="evenodd" d="M234.356 384.825C260.96 387.527 287.568 350.73 293.788 302.638C300.007 254.545 283.482 213.369 256.878 210.667C245.925 209.555 234.971 215.138 225.439 225.448C242.108 229.603 252.129 256.814 248.051 288.349C243.765 321.49 225.531 346.856 207.323 345.007C204.49 344.72 201.824 343.79 199.359 342.3C205.011 366.383 217.711 383.135 234.356 384.825Z" fill="white"/>
<path fill-rule="evenodd" clip-rule="evenodd" d="M257.916 335.931C257.916 335.931 257.916 335.931 257.916 335.931C245.465 333.45 227.351 339.711 224.409 351.301C221.467 362.892 234.811 375.423 247.262 377.905C247.287 377.91 247.313 377.915 247.339 377.92L281.078 384.644L291.731 342.671L257.916 335.931L257.916 335.931Z" fill="#F51010"/>
<ellipse cx="48.4183" cy="87.804" rx="48.4183" ry="87.804" transform="matrix(0.994883 0.101029 -0.128254 0.991741 282.406 222.961)" fill="black"/>
<path fill-rule="evenodd" clip-rule="evenodd" d="M308.054 402.011C334.658 404.713 361.267 367.916 367.486 319.824C373.705 271.731 357.181 230.555 330.577 227.853C319.623 226.741 308.669 232.324 299.138 242.634C315.806 246.789 325.828 274 321.75 305.535C317.464 338.676 299.229 364.042 281.022 362.193C278.188 361.906 275.523 360.976 273.057 359.486C278.71 383.569 291.409 400.321 308.054 402.011Z" fill="white"/>
<path d="M201.826 418.882C210.144 427.979 240.149 444.429 264.92 450.038C289.691 455.648 317.776 455.95 332.31 453.827" stroke="black" stroke-width="3"/>
<path d="M341.34 439.505C338.259 442.786 334.6 450.192 333.778 453.567C332.957 456.942 334.835 466.222 337.232 470.44" stroke="black" stroke-width="3"/>
<path d="M106.49 762.789L165.962 576.994L197.822 590.928L165.962 834.784C107.906 830.14 -6.50692 812.954 0.289886 781.368C7.08669 749.783 73.922 755.822 106.49 762.789Z" fill="#F51010"/>
<path d="M311.676 789.462L267.366 600.371L302.886 599.658L401.995 828.895C348.104 848.586 237.705 880.27 227.235 849.483C216.765 818.697 279.166 796.641 311.676 789.462Z" fill="#F51010"/>
</svg>
