<svg width="1107" height="1056" viewBox="0 0 1107 1056" fill="none" xmlns="http://www.w3.org/2000/svg">
<path d="M475.33 24.9065C522.236 -8.04024 584.764 -8.04023 631.67 24.9065L676.369 56.3028C700.327 73.131 729.076 81.7785 758.342 80.9596L813.212 79.4244C873.685 77.7324 928.005 116.189 946.503 173.788L956.426 204.688C966.334 235.54 986.932 261.841 1014.51 278.854L1041.83 295.703C1097.96 330.333 1121.16 400.253 1096.85 461.571L1090.39 477.881C1077.63 510.075 1077.63 545.925 1090.39 578.119L1096.85 594.429C1121.16 655.747 1097.96 725.667 1041.83 760.297L1014.51 777.146C986.932 794.159 966.334 820.46 956.426 851.312L946.503 882.212C928.005 939.811 873.685 978.268 813.212 976.576L758.342 975.04C729.076 974.221 700.327 982.869 676.369 999.697L631.67 1031.09C584.764 1064.04 522.236 1064.04 475.33 1031.09L430.631 999.697C406.673 982.869 377.924 974.221 348.658 975.04L293.788 976.576C233.315 978.268 178.995 939.811 160.497 882.212L150.574 851.312C140.666 820.46 120.068 794.159 92.4882 777.146L65.1738 760.297C9.03508 725.667 -14.1614 655.747 10.1463 594.429L16.6119 578.119C29.3742 545.925 29.3742 510.075 16.612 477.881L10.1463 461.571C-14.1613 400.253 9.03512 330.333 65.1738 295.703L92.4883 278.854C120.068 261.841 140.666 235.54 150.574 204.688L160.497 173.788C178.995 116.189 233.315 77.7324 293.788 79.4244L348.658 80.9596C377.924 81.7785 406.673 73.131 430.631 56.3028L475.33 24.9065Z" fill="#F51010"/>
</svg>
