<svg width="560" height="490" viewBox="0 0 560 490" fill="none" xmlns="http://www.w3.org/2000/svg">
<rect width="490" height="490" fill="#82A1FF"/>
<rect width="70" height="70" fill="#0B9391"/>
<rect x="140" width="70" height="70" fill="#0B9391"/>
<rect x="280" width="70" height="70" fill="#0B9391"/>
<rect x="420" width="70" height="70" fill="#0B9391"/>
<rect x="70" y="70" width="70" height="70" fill="#0B9391"/>
<rect x="210" y="70" width="70" height="70" fill="#0B9391"/>
<rect x="350" y="70" width="70" height="70" fill="#0B9391"/>
<rect x="490" y="70" width="70" height="70" fill="#0B9391"/>
<rect y="140" width="70" height="70" fill="#0B9391"/>
<rect x="140" y="140" width="70" height="70" fill="#0B9391"/>
<rect x="280" y="140" width="70" height="70" fill="#0B9391"/>
<rect x="420" y="140" width="70" height="70" fill="#0B9391"/>
<rect x="70" y="210" width="70" height="70" fill="#0B9391"/>
<rect x="210" y="210" width="70" height="70" fill="#0B9391"/>
<rect x="350" y="210" width="70" height="70" fill="#0B9391"/>
<rect x="490" y="210" width="70" height="70" fill="#0B9391"/>
<rect y="280" width="70" height="70" fill="#0B9391"/>
<rect x="140" y="280" width="70" height="70" fill="#0B9391"/>
<rect x="280" y="280" width="70" height="70" fill="#0B9391"/>
<rect x="420" y="280" width="70" height="70" fill="#0B9391"/>
<rect x="70" y="350" width="70" height="70" fill="#0B9391"/>
<rect x="210" y="350" width="70" height="70" fill="#0B9391"/>
<rect x="350" y="350" width="70" height="70" fill="#0B9391"/>
<rect x="490" y="350" width="70" height="70" fill="#0B9391"/>
<rect y="420" width="70" height="70" fill="#0B9391"/>
<rect x="140" y="420" width="70" height="70" fill="#0B9391"/>
<rect x="280" y="420" width="70" height="70" fill="#0B9391"/>
<rect x="420" y="420" width="70" height="70" fill="#0B9391"/>
</svg>
