<svg width="59" height="340" viewBox="0 0 59 340" fill="none" xmlns="http://www.w3.org/2000/svg">
<path fill-rule="evenodd" clip-rule="evenodd" d="M53.3792 51.5306L29.5 0L5.62075 51.5306C3.53966 54.9095 1.98274 58.7858 1 63C1 77.3594 14.5602 90 29.5 90C44.4398 90 58 77.3594 58 63C57.0173 58.7858 55.4603 54.9095 53.3792 51.5306Z" fill="#FFDEDB"/>
<path fill-rule="evenodd" clip-rule="evenodd" d="M1.18349 60L1.01613 314.5L1.01514 316L1.06769 316C1.9608 328.833 14.3458 339.009 29.5 339.019C44.6542 339.029 57.0526 328.869 57.9626 316.037L58.0151 316.037L58.0161 314.537L58.1835 60.0375L58.1736 60.0375C57.6437 73.2126 36.5843 78.8062 29.6825 61.5188C24.2393 78.7981 1.74266 73.1758 1.19403 60L1.18349 60Z" fill="#FFD83C"/>
<path fill-rule="evenodd" clip-rule="evenodd" d="M39.0001 19.5L29.5239 0L20.0001 20L20.1563 19.9959C19.6761 20.9996 19.4316 22.0226 19.5001 23C19.5001 28.5537 24.4353 31 29.891 31C34.6327 31 39.5001 28.6096 39.5001 23.0559C39.6263 21.9004 39.4172 20.6793 38.9449 19.5015L39.0001 19.5Z" fill="black"/>
<path d="M1 315.5C2.83333 308.333 11 290.9 29 290.5C47 290.1 55.8333 306.333 58 313" stroke="black" stroke-linecap="round"/>
<ellipse cx="30" cy="315.5" rx="11" ry="10.5" fill="black"/>
<path d="M14 72L11.9933 297" stroke="black"/>
<path d="M1.5 61.5C2.83333 65.1667 6.5 72.5 16 72.5C25 72.5 27.6667 65.1667 30 61.5C31.5 65.1667 36.4 72.5 46 72.5C55.6 72.5 58 64.5 58 60.5" stroke="black" stroke-linecap="round"/>
<path d="M46 73V296" stroke="black"/>
<path d="M28 65C30 62 33.1972 56.3939 33 54.8156C32.5 50.8156 28 51.3157 28 54.8157C28 57.1692 30 62 31.5 64.5" stroke="black" stroke-linecap="round"/>
</svg>
