<svg width="253" height="157" viewBox="0 0 253 157" fill="none" xmlns="http://www.w3.org/2000/svg">
<rect y="24" width="253" height="133" fill="#F51010"/>
<path fill-rule="evenodd" clip-rule="evenodd" d="M243.989 46.0001C243.996 45.6972 244 45.3938 244 45.0899C223.5 11 191 -12.4998 129 9.50003C66.5 -13.5 31 9.50002 10 45.0899C10 45.3938 10.0038 45.6972 10.0114 46.0001H10V149H244V46.0001H243.989Z" fill="white"/>
<path d="M127 149C129.779 141.169 140.062 125.407 158.961 125.007C177.86 124.607 215.361 131.836 232.5 140" stroke="black"/>
<path d="M127 149C131.5 142.5 145.101 131.9 164 131.5C182.899 131.1 221.861 139.836 239 148" stroke="black" stroke-linecap="round"/>
<path d="M127 149C143 139 148 139.5 163 139.5C178 139.5 192 142 224 149" stroke="black" stroke-linecap="round"/>
<path d="M126 148.504C110 138.504 105 139.004 90 139.004C75 139.004 61 141.504 29 148.504" stroke="black" stroke-linecap="round"/>
<path d="M127 149C124.195 141.169 113.816 125.407 94.7403 125.007C75.6649 124.607 35.7987 133.336 18.5 141.5" stroke="black"/>
<path d="M127 149C121.5 142.5 109.575 131.9 90.5 131.5C71.4247 131.1 31.2987 139.836 14 148" stroke="black"/>
<path d="M128 9L127 148" stroke="black"/>
<path d="M18 141.495C17.9975 141.772 18.2193 141.997 18.4955 142C18.7716 142.002 18.9975 141.781 19 141.505L18 141.495ZM19 30.9955L18 141.495L19 141.505L20 31.0045L19 30.9955Z" fill="black"/>
<path d="M13.5 147.998C13.4987 148.274 13.7216 148.499 13.9977 148.5C14.2739 148.501 14.4987 148.278 14.5 148.002L13.5 147.998ZM14 37.9977L13.5 147.998L14.5 148.002L15 38.0023L14 37.9977Z" fill="black"/>
<path d="M234.5 31L232.5 140" stroke="black" stroke-linecap="round"/>
<path d="M241 39L239 148" stroke="black" stroke-linecap="round"/>
</svg>
