<svg width="1409" height="101" viewBox="0 0 1409 101" fill="none" xmlns="http://www.w3.org/2000/svg">
<path d="M919 65.5L932.758 48.5161C952.757 23.8282 990.718 24.5696 1009.93 49.8725V49.8725C1029.16 75.1971 1067.23 75.7381 1086.98 50.8164L1088.75 48.5837C1108.01 24.2802 1145.2 25.2506 1163.17 50.5255V50.5255C1180.91 75.4813 1217.5 76.8066 1237 53.1999L1242.51 46.5297C1261.97 22.9676 1298.44 24.1116 1316.39 48.8475V48.8475C1334.84 74.2814 1372.63 74.6281 1391.55 49.5372L1401 37" stroke="#F51010" stroke-width="20"/>
<path d="M623 58L627.761 51.6973C646.986 26.2492 685.197 26.2009 704.486 51.6005V51.6005C723.495 76.6315 761.005 77.0193 780.527 52.3865L782.749 49.5837C802.01 25.2802 839.202 26.2506 857.17 51.5255V51.5255C874.91 76.4813 911.499 77.8066 930.998 54.1999L937.201 46.6912C956.194 23.698 991.861 25.0933 1009 49.5V49.5" stroke="#F51010" stroke-width="20"/>
<path d="M313 64L323.545 50.2441C342.934 24.9505 381.073 25.0368 400.347 50.4177V50.4177C419.426 75.5414 457.076 75.9306 476.67 51.2066L478.749 48.5837C498.01 24.2802 535.202 25.2506 553.17 50.5255V50.5255C570.91 75.4813 607.499 76.8066 626.998 53.1999L629.767 49.8483C650.232 25.0735 688.828 27.1618 706.5 54V54" stroke="#F51010" stroke-width="20"/>
<path d="M9 67.1765L19.3616 52.9089C38.1365 27.0564 76.5353 26.646 95.8585 52.0913V52.0913C114.678 76.8736 151.816 77.2575 171.144 52.8695L173.749 49.5837C193.01 25.2802 230.202 26.2506 248.17 51.5255V51.5255C265.91 76.4813 302.499 77.8066 321.998 54.1999L326.087 49.2502C346.078 25.0481 383.665 26.6679 401.5 52.5V52.5" stroke="#F51010" stroke-width="20"/>
</svg>
